HIERARCHY
ROOT Hips
{
  OFFSET 196.326 95.9168 97.7182
  CHANNELS 6 Xposition Yposition Zposition Zrotation Xrotation Yrotation
  JOINT LeftUpLeg
  {
    OFFSET 8.64259 1.95398 -2.38835
    CHANNELS 3 Zrotation Xrotation Yrotation
    JOINT LeftLeg
    {
      OFFSET 43.7702 0 0
      CHANNELS 3 Zrotation Xrotation Yrotation
      JOINT LeftFoot
      {
        OFFSET 40.6238 0 0
        CHANNELS 3 Zrotation Xrotation Yrotation
        JOINT LeftToeBase
        {
          OFFSET 12.7242 0 0
          CHANNELS 3 Zrotation Xrotation Yrotation
          End Site
          {
            OFFSET 0 0 0
          }
        }
      }
    }
  }
  JOINT RightUpLeg
  {
    OFFSET -8.2249 1.95398 -2.59336
    CHANNELS 3 Zrotation Xrotation Yrotation
    JOINT RightLeg
    {
      OFFSET 43.5653 0 0
      CHANNELS 3 Zrotation Xrotation Yrotation
      JOINT RightFoot
      {
        OFFSET 40.6238 0 0
        CHANNELS 3 Zrotation Xrotation Yrotation
        JOINT RightToeBase
        {
          OFFSET 12.7242 0 0
          CHANNELS 3 Zrotation Xrotation Yrotation
          End Site
          {
            OFFSET 0 0 0
          }
        }
      }
    }
  }
  JOINT Spine
  {
    OFFSET 0.165834 0.87714 6.61349
    CHANNELS 3 Zrotation Xrotation Yrotation
    JOINT Spine1
    {
      OFFSET 7.38963 1.71661e-005 0
      CHANNELS 3 Zrotation Xrotation Yrotation
      JOINT Spine2
      {
        OFFSET 11.9445 1.14441e-005 0
        CHANNELS 3 Zrotation Xrotation Yrotation
        JOINT Spine3
        {
          OFFSET 14.7254 4.19617e-005 0
          CHANNELS 3 Zrotation Xrotation Yrotation
          JOINT Spine4
          {
            OFFSET 10.9679 0 0
            CHANNELS 3 Zrotation Xrotation Yrotation
            JOINT RightShoulder
            {
              OFFSET 2.46616 -1.6653 3.69651
              CHANNELS 3 Zrotation Xrotation Yrotation
              JOINT RightArm
              {
                OFFSET 13.0012 0 0
                CHANNELS 3 Zrotation Xrotation Yrotation
                JOINT RightForeArm
                {
                  OFFSET 28.7848 1.52588e-005 0
                  CHANNELS 3 Zrotation Xrotation Yrotation
                  JOINT RightHand
                  {
                    OFFSET 26.5688 1.52588e-005 0
                    CHANNELS 3 Zrotation Xrotation Yrotation
                    End Site
                    {
                      OFFSET 0 0 0
                    }
                  }
                }
              }
            }
            JOINT LeftShoulder
            {
              OFFSET 2.38034 -1.29275 -3.75231
              CHANNELS 3 Zrotation Xrotation Yrotation
              JOINT LeftArm
              {
                OFFSET 16.3182 6.10351e-005 0
                CHANNELS 3 Zrotation Xrotation Yrotation
                JOINT LeftForeArm
                {
                  OFFSET 27.0901 0 0
                  CHANNELS 3 Zrotation Xrotation Yrotation
                  JOINT LeftHand
                  {
                    OFFSET 24.5451 1.52588e-005 0
                    CHANNELS 3 Zrotation Xrotation Yrotation
                    End Site
                    {
                      OFFSET 0 0 0
                    }
                  }
                }
              }
            }
            JOINT Neck
            {
              OFFSET 5.0226 -0.0266342 0
              CHANNELS 3 Zrotation Xrotation Yrotation
              JOINT Head
              {
                OFFSET 6.69363 2.86102e-005 0
                CHANNELS 3 Zrotation Xrotation Yrotation
                End Site
                {
                  OFFSET 0 0 0
                }
              }
            }
          }
        }
      }
    }
  }
}
MOTION
Frames:	19
Frame Time:	0.0416667
42.3272 87.1068 -95.036 -22.4447 -77.5934 -20.5138 -170.494 20.0573 91.1408 -67.3824 9.2122 -0.0424008 50.368 1.82483 14.4284 52.6913 24.1439 -6.47939 176.391 47.2761 96.9106 -54.4249 20.3809 0.527071 79.0613 -5.97496 -2.68865 49.2979 3.02739 14.7187 -0.384097 8.12355 -90.9948 10.6127 -1.22255 -1.86616 -1.05888 -1.30349 -1.81057 -23.5849 -0.605323 -2.1472 -3.57222 -0.605319 -2.14718 78.323 -47.4931 -119.459 27.6152 -8.08587 17.7939 -1.6691 -5.32792 -47.759 -25.386 -2.31694 5.58454 -103.239 -38.8968 54.2575 -17.3337 5.13667 -6.19185 6.02793 0.289211 -59.9985 18.316 1.35732 3.55446 16.4685 4.77836 2.97699 6.42185 4.47851 5.78756 
41.9126 86.6028 -89.0844 -33.9893 -74.1461 -31.6847 -168.33 31.3385 89.5426 -72.3192 9.36283 -0.491941 53.6365 5.27649 17.0468 59.6131 30.0513 -8.21606 176.414 46.2828 98.539 -56.3538 20.081 -0.105629 79.4797 -6.9422 -3.05916 48.0171 2.89295 15.8748 0.0277644 8.28597 -91.0096 10.2941 -0.406239 -1.96986 -1.37827 -0.492529 -1.95008 -23.9013 0.204426 -2.00088 -3.88865 0.20443 -2.00088 78.0758 -47.76 -119.704 23.7223 -7.86199 10.0766 -2.79083 -5.8643 -47.5496 -25.414 -2.29599 5.54375 -104.334 -39.3213 52.7571 -19.984 5.05034 -1.47721 5.17706 0.837023 -54.0481 20.03 1.56258 3.95775 16.532 5.06393 3.22827 8.25683 4.75778 5.66053 
41.7921 85.8641 -83.3565 -40.2358 -70.4762 -37.4534 -166.592 43.0747 88.093 -73.8691 7.42084 -0.472663 57.3054 8.22804 17.8093 57.2962 30.9204 -0.339969 175.253 45.5404 99.9581 -58.6448 20.3467 -0.185979 80.3564 -8.15848 -3.47641 49.0594 3.4218 18.4727 0.354507 8.44052 -91.0002 9.99079 0.251832 -2.00574 -1.68172 0.163321 -2.01488 -24.2062 0.842891 -1.83744 -4.19358 0.842898 -1.83744 76.4978 -48.2229 -121.84 19.0448 -7.10892 2.48625 -3.2139 -6.2245 -47.1474 -26.9317 -2.25285 4.79989 -105.409 -39.8147 51.3465 -23.1983 4.90283 3.85106 4.78915 1.47741 -48.4981 19.9197 1.63505 4.37165 17.7775 5.66643 3.91445 9.66609 5.05158 4.81971 
41.7065 85.0625 -77.44 -48.3039 -67.2114 -45.0865 -165.591 52.2746 88.1152 -71.2303 6.8906 -0.683225 60.8262 10.6777 18.9585 55.5149 30.4883 3.32674 175.286 42.9464 100.361 -60.5599 18.0308 -0.844767 82.4164 -9.68842 -3.90119 49.6331 3.25773 16.069 0.722809 8.70162 -90.8721 9.47607 1.04855 -1.80762 -2.19578 0.968001 -1.85202 -24.7277 1.5433 -1.40901 -4.715 1.5433 -1.40902 75.0676 -47.7626 -124.171 15.6478 -6.04704 -4.37768 -3.25965 -5.18402 -49.5419 -33.0024 -2.54912 3.92807 -105.386 -39.9357 51.4463 -27.2604 6.09619 8.28481 3.52677 2.0798 -41.1808 19.358 1.30736 2.90536 20.3834 6.35912 4.23586 9.07837 5.36796 3.95579 
41.5872 83.9872 -70.8918 -54.1137 -63.7873 -51.8411 -164.954 59.478 88.5184 -65.0967 7.61423 -1.4669 62.9463 11.6242 20.3384 58.935 33.4146 1.45354 175.984 39.667 98.6807 -61.9998 17.2539 -2.02371 86.1786 -12.1242 -4.43992 52.5396 3.79059 15.7577 1.02527 8.87372 -90.5519 9.13626 1.79801 -1.21932 -2.53408 1.7426 -1.2973 -25.0778 2.08131 -0.622441 -5.06512 2.08132 -0.622435 74.6084 -46.4588 -125.502 13.7517 -5.64306 -10.2888 -4.90618 -5.05836 -56.1469 -37.8978 -2.98282 4.10892 -104.544 -39.9189 52.741 -32.9803 8.84596 14.0821 3.15745 5.14159 -36.8888 18.7399 1.31824 3.18487 23.7986 7.06922 4.33964 7.50715 5.76959 3.59544 
41.3891 82.7638 -63.5663 -58.6395 -60.5196 -57.3183 -164.746 65.0369 90.7589 -57.5316 5.13842 -2.44446 66.1255 11.1855 16.8943 62.7287 36.9623 0.484813 176.861 36.0549 96.0687 -63.8406 15.6276 -3.3186 86.7286 -13.0837 -4.68971 59.0588 3.92776 9.94757 1.37802 8.82282 -90.163 9.23509 2.67525 -0.515362 -2.43325 2.64998 -0.632693 -24.9904 2.70637 0.313088 -4.97776 2.70637 0.31309 76.8911 -44.3969 -123.085 15.5259 -7.2611 -15.1414 -11.1057 -3.43595 -68.6374 -39.9161 -2.94202 3.73048 -102.898 -39.377 55.0394 -41.0156 12.037 22.4012 3.64739 10.1541 -37.1775 19.3933 1.52629 4.02157 26.2367 7.1234 2.88925 5.09054 6.28349 4.84852 
40.778 81.7169 -54.9436 -60.8396 -57.9093 -61.3146 -164.311 68.2881 92.9109 -48.5368 3.50613 -4.35645 68.6262 11.102 15.1456 60.1448 36.7073 5.60245 178.152 31.4075 91.6625 -64.1475 13.5948 -4.9741 85.321 -12.963 -4.79216 65.7076 3.9511 6.13809 1.77261 8.48509 -89.7281 9.9031 3.65647 0.243127 -1.76269 3.66365 0.0817477 -24.3349 3.41417 1.33208 -4.32228 3.41417 1.33208 82.0484 -39.5875 -117.123 21.5915 -12.2082 -19.1945 -18.9807 -0.968725 -81.9425 -43.0103 -3.0796 3.83342 -100.85 -38.4797 57.8683 -50.9025 14.4826 34.249 5.46131 13.394 -44.1019 20.312 1.69133 4.49619 27.6665 6.43994 2.3218 2.29074 5.6793 4.96444 
39.9881 81.0086 -44.8391 -62.5777 -57.3977 -64.7735 -165.761 68.7978 96.2927 -40.0846 3.00809 -6.56585 68.7576 9.73753 14.6499 63.8744 40.7948 5.42387 178.715 23.5123 86.5492 -61.4665 10.0698 -6.80852 81.1991 -11.2733 -4.59231 71.8395 3.59917 2.72499 2.12877 8.08116 -89.2801 10.6943 4.57104 1.01568 -0.968865 4.61131 0.813095 -23.554 4.05421 2.34443 -3.54139 4.05422 2.34444 87.5052 -31.1349 -111.156 31.662 -18.5832 -20.2066 -30.4373 7.77813 -92.2077 -41.6906 -3.97371 7.14896 -97.183 -34.9528 62.3194 -62.0157 13.3876 46.4245 7.5914 12.3326 -53.2074 20.9471 1.82578 4.89712 27.2054 4.87065 0.175375 0.0907282 4.9008 5.13627 
39.01 81.0487 -33.0429 -66.5203 -59.6509 -68.3657 -168.245 65.6602 99.2953 -34.4677 2.0829 -7.02979 68.0462 8.79227 15.3147 66.3716 42.1657 3.0286 177.213 9.8624 81.7362 -52.934 3.99594 -8.42049 71.9073 -7.35279 -3.66701 78.7798 4.30845 2.42979 2.37016 7.92537 -88.9864 10.9961 5.18803 1.52146 -0.665077 5.24996 1.29109 -23.2595 4.49065 3.01274 -3.24684 4.49066 3.01274 91.2607 -23.3825 -106.818 39.4022 -24.6452 -20.7548 -35.3702 13.313 -100.516 -40.3016 -4.40316 9.02231 -94.7832 -29.5051 64.0854 -70.2488 8.29109 53.768 9.66747 10.8542 -58.7144 21.2892 1.7693 4.50309 25.9439 2.45728 -4.0207 -2.52387 4.05897 6.56763 
38.762 81.5847 -20.7165 -69.7824 -62.5145 -70.9589 -169.685 61.4659 98.7094 -33.4858 0.895598 -5.47398 68.1514 9.79562 15.6477 62.1578 38.3349 4.39234 174.894 -2.04425 78.1516 -41.7019 1.39805 -9.32161 46.865 0.43182 1.1334 63.6996 5.13667 12.9578 2.37601 7.69863 -88.7448 11.4352 5.31358 1.96183 -0.225989 5.39475 1.7255 -22.8155 4.47826 3.4701 -2.80289 4.47826 3.47009 92.8754 -17.9628 -105.417 42.6527 -29.1499 -21.8156 -36.4912 15.4895 -101.602 -42.1242 -4.95583 10.011 -93.8161 -25.4914 64.0191 -73.818 1.2767 56.5816 11.1284 9.47072 -61.0858 22.8484 2.15424 5.62703 22.5649 0.330594 -9.93252 -4.32899 3.84624 9.76313 
38.8829 82.4279 -8.60111 -68.6017 -64.75 -66.333 -172.662 59.2472 99.7856 -36.5693 4.13436 -3.16182 64.6588 7.29852 15.2669 64.5633 37.9445 -1.31128 175.969 -6.60443 81.4428 -41.993 0.116494 -9.30729 42.3448 2.00788 2.33208 41.4155 1.41694 13.1678 2.40994 7.16597 -88.8238 12.5091 5.34776 1.73202 0.848372 5.41879 1.49436 -21.7465 4.57979 3.26157 -1.73388 4.57979 3.26156 92.5989 -22.9644 -103.994 36.8942 -32.7651 -23.1883 -34.0844 12.125 -98.1459 -40.6525 -4.20142 8.14976 -93.4401 -25.5075 64.77 -70.8039 -2.59529 55.9072 8.24545 5.43417 -61.1251 25.9263 2.48569 5.82356 19.4829 -1.99312 -16.7075 -4.84596 3.45883 12.6989 
38.8409 83.2656 1.36591 -62.3181 -66.1079 -58.945 -173.078 60.5058 98.4607 -44.338 10.8086 -2.96511 61.7948 4.80478 14.1929 61.8513 35.4561 -0.757668 177.402 0.00591416 85.0677 -53.2533 5.39022 -7.22581 45.2947 0.0949088 0.601616 43.1306 1.66473 12.1942 2.33522 6.92524 -88.8577 12.9942 5.18435 1.65301 1.33286 5.25206 1.42268 -21.2589 4.44769 3.13692 -1.24626 4.44769 3.13692 90.3853 -31.1287 -105.595 30.2278 -30.0735 -24.6566 -27.2796 6.82735 -91.2911 -41.8764 -4.30767 7.73315 -96.3379 -34.3297 63.5443 -59.1885 0.961008 47.5621 4.92685 1.74427 -61.0147 31.5932 3.26539 6.5842 23.9681 -1.94629 -10.526 -6.96082 1.76378 5.00614 
38.4058 84.4211 9.82538 -61.5597 -71.261 -60.7545 -171.183 54.151 91.7738 -46.5075 13.2519 -2.73526 58.8127 3.52618 15.0178 64.274 32.8788 -11.5175 174.562 9.40698 86.2193 -66.7218 15.1983 -4.49642 51.8982 -3.12675 -1.89286 45.4161 1.95718 11.2328 2.08006 7.48095 -88.5553 11.8645 4.8161 2.36962 0.200741 4.91571 2.15501 -22.3678 3.88152 3.70826 -2.35513 3.88152 3.70827 83.0892 -42.3007 -114.179 21.4929 -18.5336 -23.5412 -15.7256 2.19056 -84.959 -49.2974 -4.07886 4.61696 -104.115 -40.5705 53.7416 -44.1438 7.46518 31.9275 1.49995 -1.05718 -62.3933 37.7461 3.69178 5.87586 29.3179 -3.05663 -5.46855 -9.49557 -0.779287 1.6014 
38.8526 86.2473 17.7206 -65.2104 -75.9564 -64.5824 -171.447 46.5901 88.4782 -47.7408 13.3315 -2.20944 59.5347 6.53571 18.3541 55.6833 21.3912 -25.014 171.461 19.1646 88.2177 -72.2931 23.2239 -2.4774 59.6223 -6.13243 -3.59287 44.8711 1.87349 11.3277 1.85089 7.7865 -88.5288 11.2513 4.36802 2.49604 -0.41432 4.47361 2.30116 -22.9698 3.41632 3.6936 -2.95718 3.41632 3.6936 81.0207 -42.1082 -117.669 19.12 -11.3222 -19.9913 -8.02955 -0.341926 -89.8138 -51.4842 -4.2616 3.94898 -105.138 -41.7208 52.7546 -27.0058 13.1131 10.8423 23.724 12.9406 -66.0281 28.0332 4.55113 12.6384 28.7666 -4.28285 -6.35822 -9.70929 -1.66157 2.34382 
40.019 87.791 24.9505 -61.9423 -79.2107 -59.2346 -173.212 41.889 87.9442 -48.9885 12.7431 -1.02414 60.4403 8.88471 20.0426 46.5782 15.1497 -23.8796 171.314 31.6576 93.2652 -72.0397 21.3798 -1.26987 62.7874 -6.24828 -3.5414 51.2364 3.2644 13.7779 1.50345 7.80373 -88.7727 11.2323 3.5631 2.09226 -0.435241 3.65171 1.9333 -22.9829 2.7698 3.06645 -2.97026 2.7698 3.06644 84.3593 -38.151 -113.841 14.7302 -4.19013 -18.7325 -20.3285 7.48644 -101.438 -48.8808 -4.59639 6.1627 -106.899 -40.3623 49.3598 -9.03517 2.7026 -2.78183 3.57733 2.50706 -68.9683 68.9795 8.69874 7.84859 25.6439 -4.38478 -8.93604 -7.51391 -0.975467 2.33032 
40.6037 89.6772 31.4091 -45.2497 -83.564 -40.7656 -172.886 36.1348 88.0993 -46.6227 16.0875 -1.23523 59.753 10.8829 22.425 49.8043 17.3075 -24.7134 172.158 46.2441 95.8272 -71.4883 13.1001 -1.21675 61.0375 -3.6542 -2.09007 57.9335 3.61036 9.29437 0.669957 7.79529 -89.0892 11.2731 1.75765 1.64324 -0.397629 1.82825 1.56428 -22.9296 1.18264 2.0954 -2.91691 1.18264 2.09538 89.9974 -28.9686 -107.177 15.0849 12.3911 -21.8089 -22.8495 8.16723 -112.181 -51.3934 -5.6327 8.34631 -104.68 -35.8428 50.3111 3.24072 -7.21644 -16.9664 6.5776 0.809935 -75.7939 77.2101 6.37203 2.92602 21.615 -2.66465 -10.6366 -7.26106 0.905756 3.48138 
41.4075 92.5676 38.515 22.208 -85.6642 32.2026 -173.351 29.2945 93.0948 -42.6539 21.083 -0.467535 60.5936 12.4211 21.4776 50.7481 17.7635 -25.7396 167.614 57.8589 100.159 -72.2698 13.0052 -0.0762442 63.3807 -3.34764 -1.84499 61.245 3.21689 5.26576 -0.304045 7.72968 -89.7912 11.4188 -0.507795 0.461264 -0.252192 -0.486994 0.48317 -22.7877 -0.622963 0.28734 -2.77505 -0.622962 0.287335 93.9964 -20.4048 -101.693 18.4196 33.9227 -25.8231 -15.754 0.872647 -117.206 -55.05 -4.85992 5.70852 -99.3451 -28.1981 55.0158 13.713 -22.4245 -27.0229 -1.40169 -1.96776 -80.5111 38.9927 2.08268 1.67683 19.2473 -0.999381 -11.742 -8.02587 2.585 4.62635 
42.6769 97.276 46.7993 68.7228 -81.7306 80.3676 -173.344 13.9024 95.0962 -24.7393 26.7149 0.422241 54.6179 7.73886 19.0128 53.0147 19.5315 -24.9248 163.721 67.2858 99.662 -77.6825 13.5624 -0.59968 65.3264 -2.72436 -1.44644 64.3323 4.23863 7.88929 -1.1841 7.71225 -90.2173 11.4462 -2.4574 -0.184886 -0.222471 -2.46315 -0.0764814 -22.7737 -2.28819 -0.915254 -2.76102 -2.28819 -0.915253 96.746 -12.3157 -97.3083 19.7186 47.5541 -29.8123 -18.0059 -1.74119 -113.059 -58.0636 -5.58505 6.83164 -93.3242 -16.9722 60.1983 10.141 -40.1312 -32.5249 -6.87625 -0.526672 -82.5525 40.7388 1.35018 -0.694322 15.9382 0.178733 -12.4562 -7.34542 3.59595 7.32037 
44.5418 102.932 56.2927 64.7665 -82.1452 78.1227 -173.361 2.24875 96.4448 -9.52563 20.2438 3.25555 43.8338 -4.52512 6.37679 56.7373 22.8285 -22.5853 153.936 75.7802 108.958 -85.5276 13.2292 -2.13293 67.9846 -3.09674 -1.61868 62.4556 4.31835 9.33539 -1.29672 7.43819 -90.8188 11.9815 -2.96426 -1.31159 0.313393 -3.01911 -1.17977 -22.2362 -2.43306 -2.14208 -2.22352 -2.43307 -2.14209 98.9558 -0.817575 -94.7185 25.1038 48.3985 -34.7711 -20.2376 -3.72914 -105.321 -58.029 -5.29588 6.37183 -88.91 -8.95269 65.7361 11.3163 -49.0942 -33.04 -7.85167 -2.06961 -75.3201 41.8564 0.548724 -2.79679 9.33411 2.61017 -11.215 -5.8186 5.11202 10.406 
